<mxfile host="app.diagrams.net" modified="2020-12-19T06:56:59.849Z" agent="5.0 (Windows NT 10.0; Win64; x64) AppleWebKit/537.36 (KHTML, like Gecko) Chrome/87.0.4280.88 Safari/537.36" etag="8xuQP3uLBRI9IDKGu592" version="14.1.1" type="github">
  <diagram id="aPygmDnTVInkX0rZyRGf" name="Page-1">
    <mxGraphModel dx="1102" dy="525" grid="1" gridSize="10" guides="1" tooltips="1" connect="1" arrows="1" fold="1" page="1" pageScale="1" pageWidth="850" pageHeight="1100" math="0" shadow="0">
      <root>
        <mxCell id="0" />
        <mxCell id="1" parent="0" />
        <mxCell id="Zl9Ckwzt0fnOLs9ZbCe_-10" value="" style="edgeStyle=orthogonalEdgeStyle;rounded=0;orthogonalLoop=1;jettySize=auto;html=1;" parent="1" source="Zl9Ckwzt0fnOLs9ZbCe_-1" target="Zl9Ckwzt0fnOLs9ZbCe_-2" edge="1">
          <mxGeometry relative="1" as="geometry" />
        </mxCell>
        <mxCell id="Zl9Ckwzt0fnOLs9ZbCe_-1" value="Start" style="ellipse;whiteSpace=wrap;html=1;" parent="1" vertex="1">
          <mxGeometry x="305" y="20" width="120" height="60" as="geometry" />
        </mxCell>
        <mxCell id="Zl9Ckwzt0fnOLs9ZbCe_-11" value="" style="edgeStyle=orthogonalEdgeStyle;rounded=0;orthogonalLoop=1;jettySize=auto;html=1;" parent="1" source="Zl9Ckwzt0fnOLs9ZbCe_-2" target="Zl9Ckwzt0fnOLs9ZbCe_-3" edge="1">
          <mxGeometry relative="1" as="geometry" />
        </mxCell>
        <mxCell id="Zl9Ckwzt0fnOLs9ZbCe_-2" value="Select type of &lt;br&gt;measurement" style="shape=parallelogram;perimeter=parallelogramPerimeter;whiteSpace=wrap;html=1;fixedSize=1;" parent="1" vertex="1">
          <mxGeometry x="285" y="120" width="160" height="60" as="geometry" />
        </mxCell>
        <mxCell id="Zl9Ckwzt0fnOLs9ZbCe_-12" value="" style="edgeStyle=orthogonalEdgeStyle;rounded=0;orthogonalLoop=1;jettySize=auto;html=1;" parent="1" source="Zl9Ckwzt0fnOLs9ZbCe_-3" target="Zl9Ckwzt0fnOLs9ZbCe_-8" edge="1">
          <mxGeometry relative="1" as="geometry" />
        </mxCell>
        <mxCell id="Zl9Ckwzt0fnOLs9ZbCe_-16" style="edgeStyle=orthogonalEdgeStyle;rounded=0;orthogonalLoop=1;jettySize=auto;html=1;" parent="1" source="Zl9Ckwzt0fnOLs9ZbCe_-3" target="Zl9Ckwzt0fnOLs9ZbCe_-5" edge="1">
          <mxGeometry relative="1" as="geometry" />
        </mxCell>
        <mxCell id="Zl9Ckwzt0fnOLs9ZbCe_-3" value="Type of&lt;br&gt;measurement=&lt;br&gt;voltage_AC" style="rhombus;whiteSpace=wrap;html=1;" parent="1" vertex="1">
          <mxGeometry x="310" y="240" width="110" height="110" as="geometry" />
        </mxCell>
        <mxCell id="Zl9Ckwzt0fnOLs9ZbCe_-15" value="" style="edgeStyle=orthogonalEdgeStyle;rounded=0;orthogonalLoop=1;jettySize=auto;html=1;" parent="1" source="Zl9Ckwzt0fnOLs9ZbCe_-4" target="Zl9Ckwzt0fnOLs9ZbCe_-9" edge="1">
          <mxGeometry relative="1" as="geometry">
            <Array as="points">
              <mxPoint x="370" y="700" />
              <mxPoint x="370" y="700" />
            </Array>
          </mxGeometry>
        </mxCell>
        <mxCell id="Zl9Ckwzt0fnOLs9ZbCe_-4" value="Enter signal frequency" style="shape=parallelogram;perimeter=parallelogramPerimeter;whiteSpace=wrap;html=1;fixedSize=1;" parent="1" vertex="1">
          <mxGeometry x="285" y="610" width="160" height="60" as="geometry" />
        </mxCell>
        <mxCell id="Zl9Ckwzt0fnOLs9ZbCe_-17" value="" style="edgeStyle=orthogonalEdgeStyle;rounded=0;orthogonalLoop=1;jettySize=auto;html=1;" parent="1" source="Zl9Ckwzt0fnOLs9ZbCe_-5" target="Zl9Ckwzt0fnOLs9ZbCe_-6" edge="1">
          <mxGeometry relative="1" as="geometry" />
        </mxCell>
        <mxCell id="Zl9Ckwzt0fnOLs9ZbCe_-5" value="Select range of value" style="shape=parallelogram;perimeter=parallelogramPerimeter;whiteSpace=wrap;html=1;fixedSize=1;" parent="1" vertex="1">
          <mxGeometry x="580" y="390" width="150" height="60" as="geometry" />
        </mxCell>
        <mxCell id="Zl9Ckwzt0fnOLs9ZbCe_-18" style="edgeStyle=orthogonalEdgeStyle;rounded=0;orthogonalLoop=1;jettySize=auto;html=1;" parent="1" source="Zl9Ckwzt0fnOLs9ZbCe_-6" edge="1">
          <mxGeometry relative="1" as="geometry">
            <mxPoint x="370" y="700" as="targetPoint" />
            <Array as="points">
              <mxPoint x="655" y="680" />
              <mxPoint x="655" y="680" />
            </Array>
          </mxGeometry>
        </mxCell>
        <mxCell id="Zl9Ckwzt0fnOLs9ZbCe_-6" value="Enter DC input voltage&amp;nbsp;" style="shape=parallelogram;perimeter=parallelogramPerimeter;whiteSpace=wrap;html=1;fixedSize=1;" parent="1" vertex="1">
          <mxGeometry x="580" y="500" width="150" height="60" as="geometry" />
        </mxCell>
        <mxCell id="Zl9Ckwzt0fnOLs9ZbCe_-14" value="" style="edgeStyle=orthogonalEdgeStyle;rounded=0;orthogonalLoop=1;jettySize=auto;html=1;" parent="1" source="Zl9Ckwzt0fnOLs9ZbCe_-7" target="Zl9Ckwzt0fnOLs9ZbCe_-4" edge="1">
          <mxGeometry relative="1" as="geometry" />
        </mxCell>
        <mxCell id="Zl9Ckwzt0fnOLs9ZbCe_-7" value="Enter AC input voltage" style="shape=parallelogram;perimeter=parallelogramPerimeter;whiteSpace=wrap;html=1;fixedSize=1;" parent="1" vertex="1">
          <mxGeometry x="285" y="500" width="160" height="60" as="geometry" />
        </mxCell>
        <mxCell id="Zl9Ckwzt0fnOLs9ZbCe_-13" value="" style="edgeStyle=orthogonalEdgeStyle;rounded=0;orthogonalLoop=1;jettySize=auto;html=1;" parent="1" source="Zl9Ckwzt0fnOLs9ZbCe_-8" target="Zl9Ckwzt0fnOLs9ZbCe_-7" edge="1">
          <mxGeometry relative="1" as="geometry" />
        </mxCell>
        <mxCell id="Zl9Ckwzt0fnOLs9ZbCe_-8" value="Select range of value" style="shape=parallelogram;perimeter=parallelogramPerimeter;whiteSpace=wrap;html=1;fixedSize=1;" parent="1" vertex="1">
          <mxGeometry x="285" y="400" width="160" height="60" as="geometry" />
        </mxCell>
        <mxCell id="Zl9Ckwzt0fnOLs9ZbCe_-20" value="" style="edgeStyle=orthogonalEdgeStyle;rounded=0;orthogonalLoop=1;jettySize=auto;html=1;" parent="1" source="Zl9Ckwzt0fnOLs9ZbCe_-9" target="Zl9Ckwzt0fnOLs9ZbCe_-19" edge="1">
          <mxGeometry relative="1" as="geometry" />
        </mxCell>
        <mxCell id="Zl9Ckwzt0fnOLs9ZbCe_-9" value="save selected data" style="rounded=0;whiteSpace=wrap;html=1;" parent="1" vertex="1">
          <mxGeometry x="290" y="720" width="150" height="60" as="geometry" />
        </mxCell>
        <mxCell id="cGjhqfviz_3GE6bAkrPI-2" value="" style="edgeStyle=orthogonalEdgeStyle;rounded=0;orthogonalLoop=1;jettySize=auto;html=1;" edge="1" parent="1" source="Zl9Ckwzt0fnOLs9ZbCe_-19" target="cGjhqfviz_3GE6bAkrPI-1">
          <mxGeometry relative="1" as="geometry" />
        </mxCell>
        <mxCell id="Zl9Ckwzt0fnOLs9ZbCe_-19" value="Display the output waveform graph" style="rounded=0;whiteSpace=wrap;html=1;" parent="1" vertex="1">
          <mxGeometry x="290" y="840" width="150" height="60" as="geometry" />
        </mxCell>
        <mxCell id="Zl9Ckwzt0fnOLs9ZbCe_-21" value="Yes" style="text;html=1;align=center;verticalAlign=middle;resizable=0;points=[];autosize=1;" parent="1" vertex="1">
          <mxGeometry x="300" y="360" width="40" height="20" as="geometry" />
        </mxCell>
        <mxCell id="Zl9Ckwzt0fnOLs9ZbCe_-22" value="No" style="text;html=1;align=center;verticalAlign=middle;resizable=0;points=[];autosize=1;" parent="1" vertex="1">
          <mxGeometry x="495" y="300" width="30" height="20" as="geometry" />
        </mxCell>
        <mxCell id="cGjhqfviz_3GE6bAkrPI-1" value="End" style="ellipse;whiteSpace=wrap;html=1;" vertex="1" parent="1">
          <mxGeometry x="305" y="950" width="120" height="60" as="geometry" />
        </mxCell>
      </root>
    </mxGraphModel>
  </diagram>
</mxfile>
